<svg version="1.2" xmlns="http://www.w3.org/2000/svg" viewBox="0 0 258 257" width="258" height="257"><style>.a{fill:#fff}</style><path fill-rule="evenodd" class="a" d="m89 115.6q0.3 0.7 0.9 1.2 0.6 0.5 1.3 0.7 0.8 0.2 1.5 0l25.1-5.8q0.8-0.2 1.6 0 0.8 0.3 1.4 0.8 0.6 0.6 0.9 1.4 0.2 0.9 0.1 1.7l-7.5 36.4q-0.2 0.8 0.1 1.7 0.3 0.8 0.9 1.4 0.7 0.6 1.5 0.8 0.9 0.1 1.7-0.1l15.5-4.7q0.8-0.2 1.6-0.1 0.9 0.2 1.5 0.8 0.7 0.6 1 1.4 0.2 0.9 0 1.7l-11.8 57.2c-0.5 2.3 1.4 4 3.3 4q0.4 0 0.8-0.1 0.4-0.1 0.8-0.3 0.3-0.2 0.6-0.5 0.3-0.3 0.5-0.6l1.4-2.1 73.2-146.1c0.3-0.6 0.4-1.2 0.3-1.8 0-0.6-0.3-1.2-0.6-1.7-0.4-0.5-0.9-0.9-1.5-1.1-0.6-0.2-1.2-0.2-1.8-0.1l-25.7 4.9q-0.9 0.2-1.7-0.1-0.8-0.2-1.4-0.9-0.6-0.6-0.8-1.5-0.2-0.8 0.1-1.6l16.8-58.3q0.2-0.8 0-1.7-0.2-0.8-0.8-1.4-0.6-0.7-1.4-0.9-0.8-0.3-1.6-0.1l-89.9 17.6q-0.5 0.1-1 0.4-0.5 0.2-0.8 0.6-0.4 0.5-0.6 1-0.2 0.5-0.3 1l-5.5 93.4q0 0.7 0.3 1.5zm161.2-87l-64.4 11.7-5.9 20.4 22.4-4.3q1.3-0.3 2.6-0.2 1.3 0.2 2.5 0.7 1.3 0.6 2.3 1.4 1 0.9 1.6 2 0.6 1 1 2 0.3 1.1 0.3 2.2 0.1 1.1-0.2 2.2-0.2 1.1-0.7 2.1l-73.2 146.1-0.2 0.3-0.1 0.2-1.3 2.1q-0.6 0.9-1.4 1.6-0.8 0.8-1.8 1.3-0.9 0.5-2 0.8-1 0.3-2.1 0.3-1 0-1.9-0.2-1-0.3-1.9-0.7-0.9-0.4-1.6-1-0.8-0.6-1.4-1.4-0.6-0.7-1.1-1.6-0.4-0.9-0.6-1.8-0.2-0.9-0.2-1.9-0.1-1 0.1-1.9l11.1-53.7-12 3.6q-1.3 0.4-2.6 0.4-1.3 0-2.5-0.4-1.2-0.3-2.3-1.1-1.1-0.7-1.9-1.7-0.6-0.7-1.1-1.6-0.4-0.9-0.6-1.8-0.2-0.9-0.3-1.9 0-1 0.2-1.9l6.8-33.2-21.9 5q-1.1 0.3-2.2 0.2-1.1 0-2.2-0.3-1.1-0.4-2.1-1-1-0.6-1.7-1.4-0.6-0.6-1.1-1.4-0.5-0.7-0.8-1.6-0.3-0.8-0.4-1.7-0.1-0.9-0.1-1.8l4.2-70.8-80.2-14.3c-1.2-0.3-2.5-0.1-3.7 0.3-1.1 0.5-2.1 1.3-2.9 2.3-0.7 1.1-1.1 2.3-1.2 3.5 0 1.3 0.3 2.5 0.9 3.6l123.8 217.2c0.6 1 1.5 1.8 2.5 2.4 1 0.6 2.1 0.9 3.3 0.9 1.2 0 2.3-0.3 3.3-0.9 1-0.6 1.9-1.4 2.4-2.5l121.5-217.1c0.6-1.1 0.9-2.3 0.8-3.6-0.1-1.2-0.5-2.4-1.2-3.5-0.8-1-1.8-1.8-2.9-2.2-1.2-0.5-2.4-0.6-3.7-0.4z"/></svg>